<?xml version="1.0" encoding="utf-8"?>
<!-- Generator: Adobe Illustrator 27.0.0, SVG Export Plug-In . SVG Version: 6.00 Build 0)  -->
<svg version="1.1" id="a" xmlns="http://www.w3.org/2000/svg" xmlns:xlink="http://www.w3.org/1999/xlink" x="0px" y="0px"
	 viewBox="0 0 1490.5 1490.5" style="enable-background:new 0 0 1490.5 1490.5;" xml:space="preserve">
<style type="text/css">
	.st0{fill:#318748;}
</style>
<path class="st0" d="M745.2,0C333.7,0,0,333.7,0,745.2s333.7,745.2,745.2,745.2s745.2-333.6,745.2-745.2S1156.8,0,745.2,0z
	 M895.1,661.8l160.1-117.5c15.1-11.1,36.3-7.8,47.4,7.3c11.1,15.1,7.8,36.3-7.3,47.4L935.3,716.5c-6,4.4-13.1,6.6-20,6.6
	c-10.4,0-20.7-4.8-27.4-13.9C876.8,694.2,880.1,672.9,895.1,661.8z M990.3,1110.6c-2.7,29.9-17.4,70.8-72.4,95.7
	c-11.7,5.3-100.5,50.2-148.2,74.3c-18.5,9.3-33.1,16.7-38.4,19.4c-19.4,9.7-45.3,28.3-45.3,77.3c0,18.7-15.2,33.9-33.9,33.9
	c-18.7,0-33.9-15.2-33.9-33.9c0-44.1,14.4-103.8,82.8-138c5.2-2.6,19.7-9.9,38.1-19.2c69.7-35.2,138.7-70.1,150.7-75.5
	c21.1-9.6,31.3-22,32.9-40.1c2.2-24.3-8.2-67.3-28.6-117.8c-0.9-2.1-1.6-3.6-2.2-4.6c-1.1,0.1-2.7,0.3-4.9,0.6
	c-15.6,2.5-44.6,7.1-100.5,9.9c-36.3,1.8-72.1-5.9-100.7-21.8c-37.6-20.9-62-54.6-70.7-97.5c-19.4-96.4,52.7-143.3,79.9-161
	c20.1-13.1,52.8-32.1,87.6-49.8c-4.4-9.9-10.1-22-17.1-35.9c-6.3-12.5-4.2-27.6,5.2-38c0.1-0.1,12.8-14.3,24.5-32.1
	c15-23,17.4-35.7,17.1-39.1c-3.7-8.8-8.5-11.3-44.8-16.6c-9.4-1.4-20.1-2.9-31.5-5.2c-9.7-1.9-19.7-3.6-30.3-5.4
	c-46.8-8-95.3-16.2-126.7-42.2c-22.9-18.9-48.8-56.6-71.7-89.8c-11.7-17.1-22.9-33.2-30.1-41.7c-16-18.7-44.8-45.6-72.7-71.7
	c-9.4-8.8-19.1-17.8-28.3-26.6c-13.6-12.9-14.1-34.4-1.2-47.9c12.9-13.6,34.4-14.1,47.9-1.2c9,8.6,18.6,17.5,27.9,26.2
	c30.6,28.6,59.4,55.5,77.9,77.1c9.6,11.2,21.2,28,34.5,47.4c18.3,26.6,43.4,63.1,59,75.9c17.5,14.4,58.6,21.5,94.9,27.6
	c10.5,1.8,21.4,3.6,31.9,5.7c9.9,1.9,19.3,3.3,28.4,4.6c36.9,5.4,78.7,11.5,98,58.5c10.8,26.3,3.9,58.4-21.1,97.9
	c-6.2,9.8-12.7,18.7-18.3,26c14.6,30.7,21.8,49.7,22.2,50.7c6.3,16.6-1.3,35.2-17.4,42.7c-42,19.5-85.8,44.5-108.7,59.5
	c-30.7,20-59.9,43.5-50.4,90.8c13.3,66.1,86.9,65.8,101.5,65c52.2-2.6,77.9-6.7,93.3-9.2c12.3-2,27-3.1,42.4,3.3
	c16.9,7,29.8,21.2,38.3,42.4C974.5,1004.6,994.3,1065.5,990.3,1110.6z M1189.7,903.3c-2.1,17.2-16.7,29.8-33.6,29.8
	c-1.4,0-2.8-0.1-4.2-0.3L957.4,909c-18.6-2.3-31.8-19.2-29.5-37.8c2.3-18.6,19.2-31.8,37.8-29.5l194.5,23.8
	C1178.7,867.8,1192,884.7,1189.7,903.3z M1192.8,732.4l-245.1,84.1c-3.7,1.2-7.4,1.8-11,1.8c-14.1,0-27.2-8.8-32.1-22.9
	c-6.1-17.7,3.4-37,21.1-43.1l245.1-84.1c17.7-6.1,37,3.4,43.1,21.1C1219.9,707,1210.5,726.3,1192.8,732.4z"/>
</svg>
